<?xml version="1.0" standalone="no"?>
<!DOCTYPE svg PUBLIC "-//W3C//DTD SVG 20010904//EN"
 "http://www.w3.org/TR/2001/REC-SVG-20010904/DTD/svg10.dtd">
<svg version="1.0" xmlns="http://www.w3.org/2000/svg"
 width="512.000000pt" height="512.000000pt" viewBox="0 0 512.000000 512.000000"
 preserveAspectRatio="xMidYMid meet">

<g transform="translate(0.000000,512.000000) scale(0.100000,-0.100000)"
fill="#000000" stroke="none">
<path d="M1294 4993 c-40 -29 -40 -97 -3 -285 86 -433 336 -722 737 -849 39
-13 72 -26 72 -29 0 -4 -10 -11 -22 -17 -13 -6 -50 -31 -84 -56 -110 -83 -205
-229 -239 -366 l-16 -67 -92 4 c-189 8 -370 -62 -502 -192 -133 -131 -194
-268 -202 -453 -10 -201 48 -364 181 -506 l35 -39 -54 -64 c-218 -257 -221
-630 -7 -887 88 -106 214 -186 352 -223 70 -18 212 -24 296 -11 l51 7 7 -61
c23 -200 136 -388 300 -497 368 -246 857 -92 1020 320 14 36 26 73 26 81 0 11
22 15 103 19 356 17 629 291 645 649 9 212 -56 378 -208 525 l-60 59 79 81
c92 96 150 200 177 320 20 90 15 269 -10 345 -59 187 -188 337 -359 420 -107
52 -201 71 -321 67 l-96 -3 -6 35 c-42 275 -257 507 -524 566 -41 9 -81 18
-87 20 -9 2 -13 29 -13 87 0 207 98 401 275 547 94 77 95 78 95 114 0 40 -26
66 -66 66 -71 0 -281 -211 -352 -354 -18 -36 -35 -66 -37 -66 -2 0 -24 42 -48
94 -75 158 -149 254 -270 351 -130 104 -321 189 -517 230 -89 19 -240 30 -256
18z m292 -173 c202 -51 394 -161 497 -285 79 -94 142 -216 185 -357 23 -74 55
-229 48 -235 -8 -8 -132 18 -231 48 -366 113 -565 339 -655 744 -11 50 -20 96
-20 103 0 19 48 14 176 -18z m975 -1076 c153 -46 268 -143 338 -286 24 -49 45
-109 51 -147 5 -36 8 -65 7 -66 -1 -1 -33 -18 -70 -39 -132 -73 -244 -200
-303 -344 l-28 -67 -132 0 -133 0 -22 67 c-12 37 -38 96 -58 130 -47 82 -160
194 -239 238 -104 58 -97 50 -84 112 17 73 60 162 111 224 53 66 162 141 248
170 85 29 230 33 314 8z m-757 -587 c151 -56 263 -168 322 -323 27 -72 30 -94
12 -94 -6 0 -44 -20 -84 -45 -103 -65 -195 -167 -250 -280 -24 -50 -44 -96
-44 -102 0 -8 -27 -10 -93 -6 -117 7 -212 -9 -310 -52 l-77 -33 -57 62 c-95
101 -143 225 -143 366 1 256 180 475 435 531 71 15 213 3 289 -24z m1550 -27
c101 -26 177 -70 248 -143 216 -226 205 -580 -25 -782 -77 -67 -88 -71 -149
-51 -78 25 -194 39 -265 31 l-62 -7 -6 29 c-40 189 -87 286 -190 388 -38 39
-100 87 -138 109 -42 24 -67 45 -67 56 0 10 16 49 35 88 116 232 368 346 619
282z m-790 -496 c324 -80 488 -451 335 -762 -38 -77 -119 -166 -190 -209 -49
-29 -58 -31 -99 -23 -57 12 -192 12 -250 0 -25 -4 -47 -6 -49 -4 -3 3 -8 35
-12 72 -16 142 -77 274 -177 384 -50 53 -161 136 -206 152 -14 5 -17 13 -12
36 11 60 62 146 123 211 137 146 324 195 537 143z m-833 -478 c133 -28 257
-112 333 -224 60 -88 87 -167 93 -272 l6 -85 -56 -37 c-118 -79 -215 -203
-263 -337 -15 -42 -28 -77 -30 -79 -9 -13 -123 -33 -189 -33 -102 -1 -200 24
-275 70 -161 98 -256 249 -267 428 -13 194 68 370 219 476 135 94 277 125 429
93z m1624 -131 c280 -73 456 -363 390 -643 -56 -237 -284 -421 -522 -422 l-53
0 0 43 c-1 120 -68 292 -158 402 -27 33 -79 82 -116 109 l-67 49 61 60 c101
99 169 216 193 336 7 35 20 66 28 72 23 14 179 10 244 -6z m-769 -526 c100
-18 200 -73 280 -153 84 -84 127 -165 151 -281 54 -266 -117 -540 -386 -619
-72 -21 -220 -21 -292 0 -237 70 -391 275 -391 524 0 186 89 350 245 451 117
76 255 103 393 78z"/>
</g>
</svg>
